<svg width="29" height="29" viewBox="0 0 29 29" fill="none" xmlns="http://www.w3.org/2000/svg">
<circle cx="14.2546" cy="14.1862" r="14" fill="#6814E2"/>
<path d="M20.2988 8.64913C20.2988 9.43246 19.6638 10.0675 18.8804 10.0675C18.0971 10.0675 17.4621 9.43246 17.4621 8.64913C17.4621 7.86579 18.0971 7.23078 18.8804 7.23078C19.6638 7.23078 20.2988 7.86579 20.2988 8.64913Z" fill="white"/>
<path d="M11.0472 8.64913C11.0472 9.43246 10.4121 10.0675 9.62881 10.0675C8.84548 10.0675 8.21046 9.43246 8.21046 8.64913C8.21046 7.86579 8.84548 7.23078 9.62881 7.23078C10.4121 7.23078 11.0472 7.86579 11.0472 8.64913Z" fill="white"/>
<path d="M15.8544 8.09747C15.8544 8.98095 15.1382 9.69716 14.2547 9.69716C13.3712 9.69716 12.655 8.98095 12.655 8.09747C12.655 7.21398 13.3712 6.49777 14.2547 6.49777C15.1382 6.49777 15.8544 7.21398 15.8544 8.09747Z" fill="white"/>
<path d="M11.8446 11.6398C11.9655 10.9449 12.5687 10.4376 13.274 10.4376H15.2353C15.9407 10.4376 16.5438 10.9449 16.6647 11.6398L17.1924 14.6738C17.284 15.1999 17.0223 15.6942 16.5933 15.9357L17.07 18.135C17.1353 18.4363 16.9057 18.721 16.5973 18.721H15.6276L15.2689 21.6621C15.2541 21.7834 15.1511 21.8746 15.0288 21.8746H13.4805C13.3583 21.8746 13.2553 21.7834 13.2404 21.6621L12.8817 18.721H11.912C11.6036 18.721 11.374 18.4363 11.4393 18.135L11.916 15.9357C11.487 15.6942 11.2254 15.1999 11.3169 14.6738L11.8446 11.6398Z" fill="white"/>
<path d="M11.2742 11.0164C11.0474 10.8327 10.759 10.724 10.4482 10.724H8.80937C8.15896 10.724 7.60664 11.2003 7.51108 11.8437L6.99195 15.3388C6.90289 15.9384 7.31617 16.4827 7.89259 16.5784L8.14623 20.9356C8.15296 21.0512 8.24873 21.1416 8.36461 21.1416H10.893C11.0089 21.1416 11.1047 21.0512 11.1114 20.9356L11.1927 19.5384C10.913 19.5067 10.7142 19.2384 10.7756 18.9555L11.364 16.2402C10.8388 16.0429 10.4957 15.4918 10.5986 14.9007L11.2742 11.0164Z" fill="white"/>
<path d="M17.3165 19.5384L17.3979 20.9356C17.4046 21.0512 17.5004 21.1416 17.6162 21.1416H20.1446C20.2605 21.1416 20.3563 21.0512 20.363 20.9356L20.6167 16.5784C21.1931 16.4827 21.6063 15.9384 21.5173 15.3388L20.9981 11.8437C20.9026 11.2003 20.3503 10.724 19.6999 10.724H18.061C17.7503 10.724 17.4619 10.8327 17.2351 11.0164L17.9108 14.9007C18.0136 15.4918 17.6705 16.0429 17.1453 16.2402L17.7337 18.9555C17.7951 19.2385 17.5963 19.5068 17.3165 19.5384Z" fill="white"/>
</svg>
