<svg width="29" height="29" viewBox="0 0 29 29" fill="none" xmlns="http://www.w3.org/2000/svg">
<path d="M14.0148 23.1862C18.9854 23.1862 23.0148 19.1568 23.0148 14.1862C23.0148 9.21562 18.9854 5.18619 14.0148 5.18619C9.04427 5.18619 5.01483 9.21562 5.01483 14.1862C5.01483 19.1568 9.04427 23.1862 14.0148 23.1862Z" fill="#121A21"/>
<path d="M12.7229 15.4806C10.7399 13.4901 10.2041 10.5972 11.1149 8.11879C11.2033 7.87822 10.9309 7.66431 10.7177 7.80687C10.3199 8.07276 9.94331 8.38407 9.59538 8.74109C6.92528 11.4808 6.95947 15.886 9.67047 18.5854C12.3899 21.2932 16.7813 21.2864 19.4923 18.5651C19.8257 18.2304 20.118 17.8702 20.3695 17.4907C20.5111 17.277 20.2963 17.0061 20.0557 17.0952C17.5868 18.0088 14.7056 17.4708 12.7229 15.4806Z" fill="#FFD900"/>
<path d="M20.0557 17.0951C19.5528 17.2812 19.0329 17.4069 18.5069 17.4726C15.7797 19.8175 11.6739 19.7007 9.08421 17.1221C8.5883 16.6283 8.18239 16.0773 7.86578 15.49C8.17747 16.6262 8.7793 17.698 9.67047 18.5853C12.3899 21.2931 16.7813 21.2863 19.4923 18.565C19.8256 18.2303 20.118 17.8701 20.3695 17.4906C20.5111 17.2769 20.2963 17.006 20.0557 17.0951Z" fill="#FFBB00"/>
</svg>
