<svg width="34" height="34" viewBox="0 0 34 34" fill="none" xmlns="http://www.w3.org/2000/svg">
<rect x="0.848633" y="0.821106" width="32.4893" height="32.4893" rx="5.01275" fill="#2D56EA"/>
<path d="M7.78021 21.9596C7.78021 22.0411 7.78021 22.2043 7.85782 22.2858C7.93543 22.449 8.09064 22.6121 8.24586 22.6937C8.32347 22.7752 8.47869 22.7752 8.5563 22.7752H13.2129C13.6785 22.7752 13.9889 22.449 13.9889 21.9596C13.9889 21.4702 13.6785 21.1439 13.2129 21.1439H10.4189L15.9292 15.3529L19.2664 18.8602C19.5768 19.1864 20.0425 19.1864 20.3529 18.8602L26.1736 12.7429C26.484 12.4166 26.484 11.9272 26.1736 11.601C25.8632 11.2747 25.3975 11.2747 25.0871 11.601L19.8096 17.1473L16.4724 13.6401C16.162 13.3138 15.6964 13.3138 15.3859 13.6401L9.33239 20.0021V17.0658C9.33239 16.5764 9.02196 16.2501 8.5563 16.2501C8.09064 16.2501 7.78021 16.5764 7.78021 17.0658V21.9596Z" fill="white"/>
</svg>
