<svg width="29" height="29" viewBox="0 0 29 29" fill="none" xmlns="http://www.w3.org/2000/svg">
<path d="M13.5514 6.98638C13.5514 7.31773 13.82 7.58639 14.1514 7.58639C14.4828 7.58639 14.7514 7.31777 14.7514 6.98638V5.78641C14.7514 5.45502 14.4828 5.1864 14.1514 5.1864C13.82 5.1864 13.5514 5.45502 13.5514 5.78641V6.98638Z" fill="#FFD900"/>
<path d="M13.5514 22.5863C13.5514 22.9177 13.82 23.1862 14.1514 23.1862C14.4828 23.1862 14.7514 22.9177 14.7514 22.5863V21.3863C14.7514 21.055 14.4828 20.7863 14.1514 20.7863C13.82 20.7863 13.5514 21.0549 13.5514 21.3863V22.5863Z" fill="#FFD900"/>
<path d="M21.3515 13.5862C21.0202 13.5862 20.7515 13.8548 20.7515 14.1862C20.7515 14.5176 21.0201 14.7862 21.3515 14.7862H22.5515C22.8829 14.7862 23.1514 14.5176 23.1514 14.1862C23.1514 13.8548 22.8829 13.5862 22.5515 13.5862H21.3515Z" fill="#FFD900"/>
<path d="M5.75162 13.5862C5.42023 13.5862 5.15161 13.8548 5.15161 14.1862C5.15161 14.5176 5.42023 14.7862 5.75162 14.7862H6.95159C7.28294 14.7862 7.5516 14.5176 7.5516 14.1862C7.5516 13.8548 7.28298 13.5862 6.95159 13.5862H5.75162Z" fill="#FFD900"/>
<path d="M14.1515 19.5863C17.1338 19.5863 19.5515 17.1686 19.5515 14.1863C19.5515 11.204 17.1338 8.78638 14.1515 8.78638C11.1692 8.78638 8.75159 11.204 8.75159 14.1863C8.75159 17.1686 11.1692 19.5863 14.1515 19.5863Z" fill="#FFD900"/>
<path d="M18.8185 8.67051C18.5841 8.90483 18.5841 9.28471 18.8185 9.51904C19.0528 9.75337 19.4327 9.75337 19.667 9.51904L20.5155 8.67051C20.7498 8.43619 20.7498 8.0563 20.5155 7.82199C20.2812 7.58766 19.9013 7.58766 19.667 7.82199L18.8185 8.67051Z" fill="#FFD900"/>
<path d="M7.7872 19.7018C7.55287 19.9361 7.55287 20.316 7.7872 20.5503C8.02151 20.7846 8.4014 20.7846 8.63572 20.5503L9.48425 19.7018C9.71858 19.4675 9.71858 19.0876 9.48425 18.8533C9.24992 18.6189 8.87004 18.6189 8.63572 18.8533L7.7872 19.7018Z" fill="#FFD900"/>
<path d="M19.667 18.8533C19.4327 18.6189 19.0528 18.6189 18.8185 18.8533C18.5841 19.0876 18.5841 19.4675 18.8185 19.7018L19.667 20.5503C19.9013 20.7846 20.2812 20.7846 20.5155 20.5503C20.7498 20.316 20.7498 19.9361 20.5155 19.7018L19.667 18.8533Z" fill="#FFD900"/>
<path d="M8.63572 7.82199C8.4014 7.58766 8.02151 7.58766 7.7872 7.82199C7.55287 8.0563 7.55287 8.43619 7.7872 8.67051L8.63572 9.51904C8.87004 9.75337 9.24992 9.75337 9.48425 9.51904C9.71858 9.28471 9.71858 8.90483 9.48425 8.67051L8.63572 7.82199Z" fill="#FFD900"/>
<path d="M14.1515 8.78638C14.0113 8.78638 13.8724 8.79174 13.735 8.8022C16.5227 9.01484 18.7184 11.3442 18.7184 14.1863C18.7184 17.0285 16.5227 19.3578 13.735 19.5705C13.8724 19.5809 14.0113 19.5863 14.1515 19.5863C17.1338 19.5863 19.5514 17.1687 19.5514 14.1863C19.5514 11.204 17.1338 8.78638 14.1515 8.78638Z" fill="#FFBB00"/>
<path d="M6.95139 13.5862H6.11841C6.44976 13.5862 6.71842 13.8548 6.71842 14.1862C6.71842 14.5175 6.4498 14.7862 6.11841 14.7862H6.95139C7.28275 14.7862 7.55141 14.5176 7.55141 14.1862C7.55141 13.8548 7.28275 13.5862 6.95139 13.5862Z" fill="#FFD900"/>
<path d="M22.5513 13.5862H21.7183C22.0497 13.5862 22.3183 13.8548 22.3183 14.1862C22.3183 14.5175 22.0497 14.7862 21.7183 14.7862H22.5513C22.8827 14.7862 23.1513 14.5176 23.1513 14.1862C23.1513 13.8548 22.8827 13.5862 22.5513 13.5862Z" fill="#FFD900"/>
<path d="M14.1515 5.1864C13.9895 5.1864 13.8429 5.25083 13.735 5.35506C13.8479 5.46419 13.9185 5.61695 13.9185 5.78641V6.98638C13.9185 7.15584 13.8479 7.30861 13.735 7.41769C13.8429 7.52193 13.9895 7.58636 14.1515 7.58636C14.4828 7.58636 14.7515 7.31773 14.7515 6.98634V5.78641C14.7515 5.45502 14.4828 5.1864 14.1515 5.1864Z" fill="#FFD900"/>
<path d="M14.1515 20.7863C13.9895 20.7863 13.8429 20.8507 13.735 20.955C13.8479 21.0641 13.9185 21.2168 13.9185 21.3863V22.5863C13.9185 22.7557 13.8479 22.9085 13.735 23.0176C13.8429 23.1218 13.9895 23.1861 14.1515 23.1861C14.4828 23.1861 14.7515 22.9176 14.7515 22.5862V21.3863C14.7515 21.0549 14.4828 20.7863 14.1515 20.7863Z" fill="#FFD900"/>
<path d="M20.515 7.82239C20.2832 7.59056 19.9091 7.5885 19.6743 7.81536C19.6768 7.81782 19.6795 7.81989 19.682 7.82239C19.9163 8.05671 19.9163 8.43659 19.682 8.67091L18.8335 9.51943C18.831 9.52193 18.8282 9.524 18.8257 9.52646C19.0606 9.75332 19.4347 9.75126 19.6665 9.51943L20.515 8.67091C20.7493 8.43659 20.7493 8.05671 20.515 7.82239Z" fill="#FFD900"/>
<path d="M20.515 19.7016L19.6665 18.8531C19.4346 18.6212 19.0606 18.6192 18.8257 18.846C18.8283 18.8485 18.831 18.8506 18.8335 18.8531L19.682 19.7016C19.9163 19.9359 19.9163 20.3158 19.682 20.5501C19.6795 20.5526 19.6768 20.5547 19.6743 20.5572C19.9091 20.7841 20.2832 20.782 20.515 20.5501C20.7493 20.3158 20.7493 19.9359 20.515 19.7016Z" fill="#FFD900"/>
<path d="M9.48437 8.67089L8.63585 7.82237C8.40431 7.59083 8.03093 7.58852 7.79602 7.81455C7.79885 7.81726 7.80192 7.81958 7.80468 7.82237L8.6532 8.67089C8.88752 8.90522 8.88752 9.28509 8.6532 9.51941C8.65041 9.5222 8.64737 9.52452 8.64454 9.52724C8.87945 9.75327 9.25288 9.75091 9.48437 9.51941C9.71866 9.28509 9.71866 8.90518 9.48437 8.67089Z" fill="#FFD900"/>
<path d="M9.48437 18.853C9.25285 18.6215 8.87945 18.6192 8.64454 18.8452C8.64737 18.8479 8.65041 18.8502 8.6532 18.853C8.88752 19.0874 8.88752 19.4672 8.6532 19.7016L7.80468 20.5501C7.80189 20.5529 7.79885 20.5552 7.79602 20.5579C8.03093 20.784 8.40435 20.7816 8.63585 20.5501L9.48437 19.7016C9.71866 19.4672 9.71866 19.0874 9.48437 18.853Z" fill="#FFD900"/>
</svg>
