<svg width="34" height="33" viewBox="0 0 34 33" fill="none" xmlns="http://www.w3.org/2000/svg">
<rect x="0.848633" y="0.425354" width="32.3714" height="32.3714" rx="4.99456" fill="#E30B3F"/>
<path d="M26.2677 11.7591C26.2677 11.6782 26.2677 11.5165 26.1908 11.4356C26.1138 11.2739 25.9599 11.1122 25.806 11.0313C25.7291 10.9504 25.5752 10.9504 25.4983 10.9504H20.8816C20.4199 10.9504 20.1121 11.2739 20.1121 11.7591C20.1121 12.2443 20.4199 12.5677 20.8816 12.5677H23.6516L18.1885 18.3092L14.8798 14.832C14.5721 14.5085 14.1104 14.5085 13.8026 14.832L8.03174 20.8969C7.72396 21.2204 7.72396 21.7056 8.03174 22.029C8.33952 22.3525 8.80119 22.3525 9.10897 22.029L14.3412 16.5302L17.6499 20.0074C17.9577 20.3309 18.4193 20.3309 18.7271 20.0074L24.7288 13.6999V16.611C24.7288 17.0962 25.0366 17.4197 25.4983 17.4197C25.9599 17.4197 26.2677 17.0962 26.2677 16.611V11.7591Z" fill="white"/>
</svg>
