<svg width="31" height="31" viewBox="0 0 31 31" fill="none" xmlns="http://www.w3.org/2000/svg">
<path d="M11.4079 14.9446C11.4079 15.2222 11.1858 15.4442 10.9082 15.4442H9.03309C8.75552 15.4442 8.53346 15.2222 8.53346 14.9446V13.0694C8.53346 12.7919 8.75552 12.5698 9.03309 12.5698H10.9082C11.1858 12.5698 11.4079 12.7919 11.4079 13.0694V14.9446ZM15.3247 13.0756C15.3247 12.798 15.1027 12.576 14.8251 12.576H12.95C12.6724 12.576 12.4503 12.798 12.4503 13.0756V14.9508C12.4503 15.2283 12.6724 15.4504 12.95 15.4504H14.8251C15.1027 15.4504 15.3247 15.2283 15.3247 14.9508V13.0756ZM19.2416 13.0756C19.2416 12.798 19.0195 12.576 18.742 12.576H16.8668C16.5892 12.576 16.3672 12.798 16.3672 13.0756V14.9508C16.3672 15.2283 16.5892 15.4504 16.8668 15.4504H18.742C19.0195 15.4504 19.2416 15.2283 19.2416 14.9508V13.0756ZM11.4079 16.8876C11.4079 16.61 11.1858 16.388 10.9082 16.388H9.03309C8.75552 16.388 8.53346 16.61 8.53346 16.8876V18.7628C8.53346 19.0403 8.75552 19.2624 9.03309 19.2624H10.9082C11.1858 19.2624 11.4079 19.0403 11.4079 18.7628V16.8876ZM15.3247 16.8876C15.3247 16.61 15.1027 16.388 14.8251 16.388H12.95C12.6724 16.388 12.4503 16.61 12.4503 16.8876V18.7628C12.4503 19.0403 12.6724 19.2624 12.95 19.2624H14.8251C15.1027 19.2624 15.3247 19.0403 15.3247 18.7628V16.8876ZM18.742 16.388H16.8668C16.5892 16.388 16.3672 16.61 16.3672 16.8876V18.7628C16.3672 19.0403 16.5892 19.2624 16.8668 19.2624H18.742C19.0195 19.2624 19.2416 19.0403 19.2416 18.7628V16.8876C19.2416 16.61 19.0195 16.388 18.742 16.388ZM6.98522 20.2H5.11623C4.83866 20.2 4.6166 20.422 4.6166 20.6996V22.5748C4.6166 22.8523 4.83866 23.0744 5.11623 23.0744H6.99139C7.26896 23.0744 7.49102 22.8523 7.49102 22.5748V20.6996C7.49102 20.422 7.26279 20.2 6.98522 20.2ZM7.49102 16.8876C7.49102 16.61 7.26896 16.388 6.99139 16.388H5.11623C4.83866 16.388 4.6166 16.61 4.6166 16.8876V18.7628C4.6166 19.0403 4.83866 19.2624 5.11623 19.2624H6.99139C7.26896 19.2624 7.49102 19.0403 7.49102 18.7628V16.8876ZM14.8251 20.2H12.95C12.6724 20.2 12.4503 20.422 12.4503 20.6996V22.5748C12.4503 22.8523 12.6724 23.0744 12.95 23.0744H14.8251C15.1027 23.0744 15.3247 22.8523 15.3247 22.5748V20.6996C15.3247 20.422 15.1027 20.2 14.8251 20.2ZM10.9082 20.2H9.03309C8.75552 20.2 8.53346 20.422 8.53346 20.6996V22.5748C8.53346 22.8523 8.75552 23.0744 9.03309 23.0744H10.9082C11.1858 23.0744 11.4079 22.8523 11.4079 22.5748V20.6996C11.4079 20.422 11.1858 20.2 10.9082 20.2ZM22.6588 15.4504C22.9364 15.4504 23.1585 15.2283 23.1585 14.9508V13.0756C23.1585 12.798 22.9364 12.576 22.6588 12.576H20.7837C20.5061 12.576 20.284 12.798 20.284 13.0756V14.9508C20.284 15.2283 20.5061 15.4504 20.7837 15.4504H22.6588ZM3.38294 27.1455H17.6132C17.3849 26.4299 17.2554 25.6651 17.2492 24.8755H3.38294C3.01285 24.8755 2.71677 24.5733 2.71677 24.2094V10.8057H25.0274V17.0418C25.817 17.048 26.5819 17.1652 27.2974 17.3934V6.11162C27.2974 4.48936 25.9774 3.16935 24.3551 3.16935H21.0612V1.35587C21.0612 0.763719 20.5801 0.282593 19.988 0.282593H18.3164C17.7242 0.282593 17.2431 0.763719 17.2431 1.35587V3.17552H10.495V1.35587C10.495 0.763719 10.0138 0.282593 9.42169 0.282593H7.75009C7.15793 0.282593 6.67681 0.763719 6.67681 1.35587V3.17552H3.38294C1.76069 3.17552 0.440674 4.49553 0.440674 6.11779V24.2094C0.440674 25.8255 1.76069 27.1455 3.38294 27.1455ZM30.6159 24.7892C30.6159 27.8918 28.0993 30.4085 24.9966 30.4085C21.894 30.4085 19.3773 27.8918 19.3773 24.7892C19.3773 21.6865 21.894 19.1699 24.9966 19.1699C28.0993 19.1699 30.6159 21.6865 30.6159 24.7892ZM27.834 23.3335C27.834 23.1546 27.7662 22.9819 27.6366 22.8585C27.3714 22.5933 26.9458 22.5933 26.6805 22.8585L24.2379 25.3011L23.3003 24.3636C23.0351 24.0983 22.6095 24.0983 22.3442 24.3636C22.2147 24.4931 22.1469 24.6596 22.1469 24.8385C22.1469 25.0174 22.2147 25.1901 22.3442 25.3135L23.7568 26.726C24.022 26.9913 24.4476 26.9913 24.7129 26.726L27.6305 23.8084C27.7662 23.6851 27.834 23.5123 27.834 23.3335Z" fill="white"/>
</svg>
