<svg width="24" height="24" viewBox="0 0 24 24" fill="none" xmlns="http://www.w3.org/2000/svg">
<path d="M21.25 18.1193C21.25 17.7051 21.5858 17.3693 22 17.3693C22.4142 17.3693 22.75 17.7051 22.75 18.1193L21.25 18.1193ZM1.24999 18.1193C1.24999 17.7051 1.58578 17.3693 1.99999 17.3693C2.4142 17.3693 2.74999 17.7051 2.74999 18.1193L1.24999 18.1193ZM4.5874 21.25L19.4126 21.25L19.4126 22.75L4.5874 22.75L4.5874 21.25ZM21.25 19.4126L21.25 18.1193L22.75 18.1193L22.75 19.4126L21.25 19.4126ZM2.74999 18.1193L2.74999 19.4126L1.24999 19.4126L1.24999 18.1193L2.74999 18.1193ZM2.74999 19.4126C2.74999 20.4274 3.57263 21.25 4.5874 21.25L4.5874 22.75C2.7442 22.75 1.24999 21.2558 1.24999 19.4126L2.74999 19.4126ZM22.75 19.4126C22.75 21.2558 21.2558 22.75 19.4126 22.75L19.4126 21.25C20.4274 21.25 21.25 20.4274 21.25 19.4126L22.75 19.4126Z" fill="#2B3F6C"/>
<path d="M9 13L11.2929 15.2929C11.6834 15.6834 12.3166 15.6834 12.7071 15.2929L15 13" stroke="#2B3F6C" stroke-width="1.5" stroke-linecap="round"/>
<path d="M12 15L12 8" stroke="#2B3F6C" stroke-width="1.5" stroke-linecap="round"/>
</svg>
